<svg xmlns="http://www.w3.org/2000/svg" viewBox="0 0 64 64" fill="none">
  <defs>
    <linearGradient id="bg" x1="0" y1="0" x2="64" y2="64" gradientUnits="userSpaceOnUse">
      <stop offset="0%" stop-color="#10b981"/>
      <stop offset="100%" stop-color="#0d9488"/>
    </linearGradient>
  </defs>
  <rect width="64" height="64" rx="14" fill="url(#bg)"/>
  <path d="M32 16c-5.52 0-10 4.48-10 10v4h-2c-1.1 0-2 .9-2 2v16c0 1.1.9 2 2 2h24c1.1 0 2-.9 2-2V32c0-1.1-.9-2-2-2h-2v-4c0-5.52-4.48-10-10-10zm0 4c3.31 0 6 2.69 6 6v4H26v-4c0-3.31 2.69-6 6-6zm0 14c2.21 0 4 1.79 4 4s-1.79 4-4 4-4-1.79-4-4 1.79-4 4-4z" fill="white"/>
</svg>